<svg width="18" height="20" viewBox="0 0 18 20" fill="none" xmlns="http://www.w3.org/2000/svg">
<g clip-path="url(#clip0_356_903)">
<path d="M1.43468 16.19H16.4941C16.9438 16.19 17.2954 16.0855 17.5487 15.8766C17.8021 15.6675 17.9287 15.3888 17.9287 15.0404C17.9287 14.7237 17.8369 14.4165 17.6532 14.1188C17.4695 13.8211 17.2399 13.5297 16.9644 13.2447C16.6889 12.9596 16.4149 12.6746 16.1426 12.3896C15.9335 12.1742 15.7704 11.8923 15.6533 11.5439C15.5361 11.1956 15.449 10.825 15.3919 10.4324C15.3349 10.0396 15.2938 9.65957 15.2685 9.29218C15.2495 8.07602 15.118 6.99289 14.8742 6.04277C14.6303 5.09264 14.2518 4.29454 13.7388 3.64846C13.2257 3.00238 12.5479 2.52732 11.7054 2.22329C11.5281 1.60253 11.2019 1.0768 10.7269 0.646082C10.2518 0.215361 9.66275 0 8.95963 0C8.26288 0 7.67698 0.215361 7.20191 0.646082C6.72685 1.0768 6.40064 1.60253 6.22329 2.22329C5.38085 2.52732 4.70152 3.00238 4.18528 3.64846C3.66905 4.29454 3.29059 5.09264 3.04989 6.04277C2.80919 6.99289 2.67934 8.07602 2.66034 9.29218C2.635 9.65957 2.59383 10.0396 2.53682 10.4324C2.47981 10.825 2.39272 11.1956 2.27554 11.5439C2.15836 11.8923 1.99525 12.1742 1.78623 12.3896C1.51386 12.6746 1.23991 12.9596 0.964373 13.2447C0.688837 13.5297 0.459225 13.8211 0.275535 14.1188C0.091845 14.4165 0 14.7237 0 15.0404C0 15.3888 0.126683 15.6675 0.380048 15.8766C0.633414 16.0855 0.984959 16.19 1.43468 16.19ZM8.95963 20C9.49806 20 9.97947 19.8828 10.4039 19.6485C10.8283 19.4141 11.1687 19.1069 11.4252 18.7268C11.6818 18.3468 11.8322 17.9351 11.8765 17.4917H6.05227C6.09027 17.9351 6.23913 18.3468 6.49883 18.7268C6.75853 19.1069 7.10057 19.4141 7.52496 19.6485C7.94934 19.8828 8.42757 20 8.95963 20Z" fill="black"/>
</g>
<defs>
<clipPath id="clip0_356_903">
<rect width="17.9287" height="20" fill="white"/>
</clipPath>
</defs>
</svg>
