<svg width="287" height="294" viewBox="0 0 287 294" fill="none" xmlns="http://www.w3.org/2000/svg">
<path d="M27 95.8575L129.5 28.6425L129.5 79.3818L27 149.5L27 95.8575Z" fill="#0B7D80"/>
<path d="M26.8879 96.2196L164.178 175.615L164.178 227L26.8879 149L26.8879 96.2196Z" fill="#13D0D5"/>
<path d="M142.541 57.3357L259.512 125L259.512 177.301L142.541 109.768L142.541 57.3357Z" fill="#13D0D5"/>
<path d="M107.885 201L259.93 125.5L259.93 178L107.885 256.115L107.885 201Z" fill="#0B7D80"/>
<path d="M180 36L142.5 57.6506V14.3494L180 36Z" fill="#64CFE3"/>
<path d="M157 15L179.5 2.00962V27.9904L157 15Z" fill="#BCEAF3"/>
<path d="M153 57.5L179.25 42.3446V72.6554L153 57.5Z" fill="#1A95AC"/>
</svg>
