<svg width="22" height="19" viewBox="0 0 22 19" fill="none" xmlns="http://www.w3.org/2000/svg">
<path id="Vector" d="M12.3125 1.39027C12.3125 1.80178 12.1436 2.17159 11.875 2.42647V4.17076H16.25C16.9462 4.17076 17.6139 4.4637 18.1062 4.98514C18.5984 5.50658 18.875 6.21381 18.875 6.95124V16.2195C18.875 16.9569 18.5984 17.6642 18.1062 18.1856C17.6139 18.7071 16.9462 19 16.25 19H5.75C5.05381 19 4.38613 18.7071 3.89384 18.1856C3.40156 17.6642 3.125 16.9569 3.125 16.2195V6.95124C3.125 6.21381 3.40156 5.50658 3.89384 4.98514C4.38613 4.4637 5.05381 4.17076 5.75 4.17076H10.125V2.42647C9.96182 2.27187 9.83774 2.07648 9.76406 1.8581C9.69038 1.63973 9.66944 1.4053 9.70315 1.17616C9.73687 0.947026 9.82416 0.730462 9.95708 0.546191C10.09 0.36192 10.2643 0.215796 10.4642 0.121124C10.664 0.026453 10.8831 -0.0137579 11.1014 0.00415316C11.3197 0.0220643 11.5302 0.0975284 11.7139 0.223674C11.8977 0.349819 12.0487 0.522638 12.1532 0.726395C12.2577 0.930151 12.3125 1.15837 12.3125 1.39027ZM5.75 6.02441C5.51794 6.02441 5.29538 6.12206 5.13128 6.29587C4.96719 6.46969 4.875 6.70543 4.875 6.95124V16.2195C4.875 16.4653 4.96719 16.7011 5.13128 16.8749C5.29538 17.0487 5.51794 17.1463 5.75 17.1463H16.25C16.4821 17.1463 16.7046 17.0487 16.8687 16.8749C17.0328 16.7011 17.125 16.4653 17.125 16.2195V6.95124C17.125 6.70543 17.0328 6.46969 16.8687 6.29587C16.7046 6.12206 16.4821 6.02441 16.25 6.02441H5.75ZM2.25 8.8049H0.5V14.3659H2.25V8.8049ZM19.75 8.8049H21.5V14.3659H19.75V8.8049ZM8.375 12.9756C8.7231 12.9756 9.05694 12.8291 9.30308 12.5684C9.54922 12.3077 9.6875 11.9541 9.6875 11.5854C9.6875 11.2167 9.54922 10.863 9.30308 10.6023C9.05694 10.3416 8.7231 10.1951 8.375 10.1951C8.0269 10.1951 7.69306 10.3416 7.44692 10.6023C7.20078 10.863 7.0625 11.2167 7.0625 11.5854C7.0625 11.9541 7.20078 12.3077 7.44692 12.5684C7.69306 12.8291 8.0269 12.9756 8.375 12.9756ZM13.625 12.9756C13.9731 12.9756 14.3069 12.8291 14.5531 12.5684C14.7992 12.3077 14.9375 11.9541 14.9375 11.5854C14.9375 11.2167 14.7992 10.863 14.5531 10.6023C14.3069 10.3416 13.9731 10.1951 13.625 10.1951C13.2769 10.1951 12.9431 10.3416 12.6969 10.6023C12.4508 10.863 12.3125 11.2167 12.3125 11.5854C12.3125 11.9541 12.4508 12.3077 12.6969 12.5684C12.9431 12.8291 13.2769 12.9756 13.625 12.9756Z" fill="white"/>
</svg>
